<?xml version="1.0" encoding="UTF-8" standalone="no"?>
<!-- Created with Inkscape (http://www.inkscape.org/) -->

<svg
   width="256"
   height="256"
   viewBox="0 0 67.733335 67.733335"
   version="1.1"
   id="svg8"
   inkscape:version="1.1.2 (08b2f3d93c, 2022-04-05)"
   sodipodi:docname="angularjs0.svg"
   xmlns:inkscape="http://www.inkscape.org/namespaces/inkscape"
   xmlns:sodipodi="http://sodipodi.sourceforge.net/DTD/sodipodi-0.dtd"
   xmlns="http://www.w3.org/2000/svg"
   xmlns:svg="http://www.w3.org/2000/svg"
   xmlns:rdf="http://www.w3.org/1999/02/22-rdf-syntax-ns#"
   xmlns:cc="http://creativecommons.org/ns#"
   xmlns:dc="http://purl.org/dc/elements/1.1/">
  <defs
     id="defs2" />
  <sodipodi:namedview
     id="base"
     pagecolor="#ffffff"
     bordercolor="#666666"
     borderopacity="1.0"
     inkscape:pageopacity="0.0"
     inkscape:pageshadow="2"
     inkscape:zoom="1.4"
     inkscape:cx="-16.785714"
     inkscape:cy="141.42857"
     inkscape:document-units="mm"
     inkscape:current-layer="layer1"
     showgrid="false"
     units="px"
     inkscape:window-width="1920"
     inkscape:window-height="1016"
     inkscape:window-x="0"
     inkscape:window-y="0"
     inkscape:window-maximized="1"
     inkscape:pagecheckerboard="0" />
  <metadata
     id="metadata5">
    <rdf:RDF>
      <cc:Work
         rdf:about="">
        <dc:format>image/svg+xml</dc:format>
        <dc:type
           rdf:resource="http://purl.org/dc/dcmitype/StillImage" />
        <dc:title />
      </cc:Work>
    </rdf:RDF>
  </metadata>
  <g
     inkscape:label="Layer 1"
     inkscape:groupmode="layer"
     id="layer1"
     transform="translate(0,-229.26665)">
    <g
       id="g23"
       transform="matrix(0.30160748,0,0,0.32389424,8.8472706,234.67127)">
      <path
         fill="#b2b2b2"
         d="M 82.688,0 0,29.1 l 13.066,108.335 69.71,38.314 70.069,-38.834 13.062,-108.331 z m 0,0"
         id="path4" />
      <path
         fill="#b52e31"
         d="M 157.66,34.846 82.496,9.214 v 157.381 l 62.991,-34.861 z m 0,0"
         id="path6" />
      <path
         fill="#e23237"
         d="m 9.279,35.308 11.196,96.889 62.019,34.398 V 9.211 Z m 0,0"
         id="path8" />
      <path
         fill="#f2f2f2"
         d="M 99.918,87.493 82.632,51.396 67.415,87.493 Z m 6.59,15.179 h -45.82 l -10.251,25.64 -19.067,0.352 51.126,-113.735 52.908,113.734 h -17.673 z m 0,0"
         id="path10" />
      <path
         fill="#b2b2b2"
         d="M 82.496,14.929 82.632,51.396 99.9,87.521 H 82.534 l -0.039,15.127 24.012,0.023 11.223,25.996 18.245,0.339 z m 0,0"
         id="path12" />
    </g>
  </g>
  <style
     id="style915"
     type="text/css">
	.st0{fill:#DD0031;}
	.st1{fill:#C3002F;}
	.st2{fill:#FFFFFF;}
</style>
</svg>
